<?xml version="1.0" encoding="UTF-8"?>
<!DOCTYPE svg PUBLIC "-//W3C//DTD SVG 1.1//EN" "http://www.w3.org/Graphics/SVG/1.1/DTD/svg11.dtd">
<!-- Creator: CorelDRAW 2018 (64 Bit Versión de evaluación) -->
<svg xmlns="http://www.w3.org/2000/svg" xml:space="preserve" width="7.87402in" height="4.72441in" version="1.1" style="shape-rendering:geometricPrecision; text-rendering:geometricPrecision; image-rendering:optimizeQuality; fill-rule:evenodd; clip-rule:evenodd"
viewBox="0 0 7874.02 4724.41"
 xmlns:xlink="http://www.w3.org/1999/xlink">
 <defs>
  <style type="text/css">
   <![CDATA[
    .fil0 {fill:#296735}
    .fil2 {fill:#6BB433}
    .fil1 {fill:#6BB433;fill-rule:nonzero}
   ]]>
  </style>
 </defs>
 <g id="Capa_x0020_1">
  <metadata id="CorelCorpID_0Corel-Layer"/>
  <g id="_2057664367360">
   <path class="fil0" d="M1854.11 109.54c353.35,0 681.27,108.73 952.28,294.45 -170.87,139.14 -315.68,309.07 -425.9,501.37 -154.23,-91.31 -334.17,-143.8 -526.39,-143.8 -552.04,0 -1003.06,432.3 -1033.1,976.84 218.99,2.04 418.52,-48.15 595.05,-160.03 91.97,148.54 223.83,307.42 406.35,478.31 -280.29,198.34 -569.48,262.02 -862.41,260.63 179.43,307.24 512.63,513.72 894.11,513.72 192.22,0 372.16,-52.48 526.39,-143.8 110.22,192.3 255.02,362.23 425.9,501.37 -271.02,185.72 -598.93,294.45 -952.28,294.45 -931.57,0 -1686.76,-755.19 -1686.76,-1686.76 0,-931.57 755.19,-1686.76 1686.76,-1686.76z"/>
   <path class="fil0" d="M7472.28 964.98c139.26,245.36 218.84,529.03 218.84,831.31 0,931.57 -755.19,1686.76 -1686.76,1686.76 -573.83,0 -1080.65,-286.62 -1385.35,-724.43 899.48,897 2985.42,292.55 2853.27,-1793.64z"/>
   <path class="fil0" d="M7472.2 964.85c-289.92,-510.72 -838.61,-855.31 -1467.85,-855.31 -931.57,0 -1686.76,755.19 -1686.76,1686.76 0,229.4 49.64,457.36 132.61,656.7 -145.33,-1088.98 798.89,-1407.13 1958.41,-1300.02 523.97,61.75 749.2,55.18 1063.58,-188.13z"/>
   <path class="fil0" d="M3943 109.54c353.35,0 681.27,108.73 952.28,294.45 -170.87,139.14 -315.68,309.07 -425.89,501.37 -154.23,-91.31 -334.17,-143.8 -526.39,-143.8 -571.47,0 -1034.74,463.27 -1034.74,1034.74 0,571.47 463.26,1034.74 1034.74,1034.74 192.22,0 372.16,-52.48 526.39,-143.8 110.22,192.3 255.02,362.23 425.89,501.37 -271.01,185.72 -598.93,294.45 -952.28,294.45 -931.57,0 -1686.76,-755.19 -1686.76,-1686.76 0,-931.57 755.19,-1686.76 1686.76,-1686.76z"/>
   <path class="fil0" d="M7087.92 1556.19c-487.57,727.83 -1348.38,1126.24 -2529.48,1108.99 -25.13,-41.13 -49.57,-84.65 -73.02,-134.73 1082.15,-57.3 2107.38,-383.6 2602.49,-974.26z"/>
  </g>
  <polygon class="fil1" points="5102.53,4637.75 5102.53,3990.15 5192.71,3990.15 5192.71,4561.78 5492.96,4561.78 5492.96,4637.75 "/>
  <polygon class="fil1" points="4758.26,4637.75 4758.26,3990.15 4848.43,3990.15 4848.43,4637.75 "/>
  <path class="fil1" d="M3499.86 4637.75l213.11 -336.02 -187.69 -311.59 86.91 0 100.52 165.67c20.93,34.37 35.44,60.59 43.78,78.83 12.46,-22.61 27.09,-46.73 43.91,-72.2l110.15 -172.3 79.98 0 -191.54 307.82 206.18 339.78 -89.61 0 -139.15 -230.94c-7.96,-13.12 -15.54,-26.23 -22.6,-39.19 -12.33,21.71 -21.06,36.93 -26.44,45.53l-139.8 224.61 -87.68 0z"/>
  <polygon class="fil1" points="2945.64,4637.75 2945.64,3990.15 3359.54,3990.15 3359.54,4066.11 3021.7,4066.11 3021.7,4251.34 3293.48,4251.34 3293.48,4327.32 3021.7,4327.32 3021.7,4561.78 3373.15,4561.78 3373.15,4637.75 "/>
  <polygon class="fil1" points="2490.6,4637.75 2490.6,4052.36 2301.21,4052.36 2301.21,3990.15 2756.24,3990.15 2756.24,4052.36 2566.85,4052.36 2566.85,4637.75 "/>
  <polygon class="fil1" points="4308.34,4637.75 4308.34,4052.36 4118.96,4052.36 4118.96,3990.15 4573.98,3990.15 4573.98,4052.36 4384.59,4052.36 4384.59,4637.75 "/>
  <polygon class="fil2" points="2980.55,3901.17 3105.65,3735.04 3145.85,3735.04 3186.04,3735.04 3311.14,3901.17 3236.78,3901.17 3145.85,3775.77 3054.91,3901.17 "/>
 </g>
</svg>
